<svg width="123" height="40" viewBox="0 0 123 40" fill="none" xmlns="http://www.w3.org/2000/svg">
<path d="M4.97748 0.5H117.065C119.539 0.5 121.521 2.4431 121.521 4.8V35.2C121.521 37.5569 119.539 39.5 117.065 39.5H4.97748C2.50437 39.5 0.521484 37.5569 0.521484 35.2V4.8C0.521484 2.44309 2.50437 0.5 4.97748 0.5Z" stroke="white"/>
<path d="M26.7257 19.088C26.7009 16.224 29.1459 14.832 29.2532 14.768C27.8656 12.816 25.718 12.544 24.9663 12.52C23.1656 12.336 21.4145 13.568 20.4977 13.568C19.5643 13.568 18.1436 12.544 16.6237 12.568C14.6661 12.6 12.8241 13.696 11.8247 15.408C9.75142 18.888 11.296 24.008 13.2867 26.824C14.2861 28.2 15.4425 29.744 16.9706 29.688C18.4574 29.632 19.0191 28.768 20.8115 28.768C22.5957 28.768 23.1161 29.688 24.669 29.656C26.2714 29.632 27.2708 28.272 28.2373 26.88C29.3854 25.304 29.848 23.744 29.8645 23.664C29.8232 23.648 26.7587 22.512 26.7257 19.088Z" fill="white"/>
<path d="M23.7941 10.672C24.5953 9.70404 25.1404 8.38404 24.9918 7.04004C23.8354 7.08804 22.3816 7.81604 21.5473 8.76804C20.8122 9.60804 20.1514 10.976 20.3166 12.264C21.6217 12.36 22.9598 11.624 23.7941 10.672Z" fill="white"/>
<path d="M48.3017 29.488H46.2202L45.0803 26.016H41.1155L40.0335 29.488H38.0098L41.9333 17.672H44.3617L48.3017 29.488ZM44.7417 24.56L43.7092 21.48C43.6018 21.16 43.3953 20.424 43.0979 19.256H43.0566C42.9327 19.76 42.7427 20.504 42.4784 21.48L41.4624 24.56H44.7417Z" fill="white"/>
<path d="M58.3878 25.128C58.3878 26.576 57.9831 27.72 57.1654 28.56C56.4385 29.312 55.5299 29.68 54.4561 29.68C53.2914 29.68 52.4572 29.28 51.945 28.472V32.944H49.9874V23.768C49.9874 22.856 49.9626 21.928 49.9131 20.968H51.6312L51.7385 22.32H51.7716C52.4241 21.304 53.4153 20.792 54.7369 20.792C55.7777 20.792 56.6367 21.192 57.3306 21.984C58.0409 22.784 58.3878 23.824 58.3878 25.128ZM56.3972 25.192C56.3972 24.36 56.2072 23.68 55.819 23.144C55.3977 22.584 54.8278 22.304 54.1174 22.304C53.6383 22.304 53.2006 22.464 52.8041 22.768C52.4159 23.08 52.1515 23.48 52.0359 23.984C51.9781 24.216 51.945 24.408 51.945 24.56V25.984C51.945 26.6 52.1433 27.128 52.5315 27.552C52.9197 27.976 53.4318 28.192 54.0596 28.192C54.7947 28.192 55.3647 27.912 55.7777 27.368C56.1907 26.816 56.3972 26.096 56.3972 25.192Z" fill="white"/>
<path d="M68.4972 25.128C68.4972 26.576 68.0925 27.72 67.2747 28.56C66.5479 29.312 65.6393 29.68 64.5655 29.68C63.4008 29.68 62.5665 29.28 62.0544 28.472V32.944H60.0968V23.768C60.0968 22.856 60.072 21.928 60.0225 20.968H61.7405L61.8479 22.32H61.881C62.5335 21.304 63.5247 20.792 64.8463 20.792C65.8871 20.792 66.7461 21.192 67.4399 21.984C68.1503 22.784 68.4972 23.824 68.4972 25.128ZM66.5066 25.192C66.5066 24.36 66.3166 23.68 65.9284 23.144C65.5071 22.584 64.9372 22.304 64.2268 22.304C63.7477 22.304 63.3099 22.464 62.9135 22.768C62.5252 23.08 62.2692 23.48 62.1453 23.984C62.0875 24.216 62.0544 24.408 62.0544 24.56V25.984C62.0544 26.6 62.2527 27.128 62.6409 27.552C63.0291 27.976 63.5412 28.192 64.169 28.192C64.9041 28.192 65.4823 27.912 65.8871 27.368C66.3083 26.816 66.5066 26.096 66.5066 25.192Z" fill="white"/>
<path d="M79.8128 26.176C79.8128 27.184 79.4493 28 78.7307 28.632C77.9378 29.32 76.8309 29.664 75.4102 29.664C74.0969 29.664 73.0478 29.416 72.2549 28.928L72.7092 27.352C73.5682 27.84 74.5099 28.088 75.5341 28.088C76.2692 28.088 76.8474 27.928 77.2522 27.608C77.6652 27.288 77.8717 26.856 77.8717 26.32C77.8717 25.84 77.6982 25.44 77.3678 25.112C77.0292 24.784 76.4675 24.48 75.6828 24.2C73.5269 23.424 72.4614 22.296 72.4614 20.816C72.4614 19.848 72.8413 19.056 73.593 18.432C74.3447 17.816 75.3441 17.504 76.5914 17.504C77.6982 17.504 78.6233 17.688 79.3585 18.064L78.8629 19.6C78.169 19.24 77.3926 19.056 76.517 19.056C75.8315 19.056 75.2863 19.224 74.8981 19.544C74.5759 19.84 74.4107 20.192 74.4107 20.616C74.4107 21.08 74.6007 21.472 74.9724 21.768C75.2946 22.048 75.8893 22.352 76.7483 22.68C77.7973 23.088 78.5655 23.568 79.0611 24.12C79.565 24.672 79.8128 25.36 79.8128 26.176Z" fill="white"/>
<path d="M86.29 22.3918H84.1341V26.5278C84.1341 27.5758 84.5141 28.1038 85.274 28.1038C85.6209 28.1038 85.91 28.0718 86.1413 28.0158L86.1991 29.4558C85.8109 29.5918 85.307 29.6638 84.6793 29.6638C83.9028 29.6638 83.3081 29.4318 82.8703 28.9758C82.4326 28.5198 82.2178 27.7518 82.2178 26.6798V22.3838H80.9375V20.9678H82.2178V19.4078L84.1341 18.8478V20.9678H86.29V22.3918Z" fill="white"/>
<path d="M95.9872 25.16C95.9872 26.472 95.599 27.544 94.8308 28.384C94.0214 29.248 92.9476 29.68 91.6094 29.68C90.3209 29.68 89.2884 29.264 88.5202 28.44C87.752 27.616 87.3721 26.568 87.3721 25.304C87.3721 23.984 87.7685 22.904 88.5532 22.064C89.3462 21.224 90.4117 20.8 91.7499 20.8C93.0384 20.8 94.0792 21.216 94.8639 22.048C95.6155 22.848 95.9872 23.888 95.9872 25.16ZM93.9635 25.2C93.9635 24.416 93.7901 23.752 93.4432 23.192C93.0302 22.512 92.4437 22.176 91.6838 22.176C90.8991 22.176 90.2961 22.512 89.8914 23.192C89.5362 23.752 89.371 24.432 89.371 25.24C89.371 26.024 89.5444 26.696 89.8914 27.248C90.3126 27.928 90.9073 28.264 91.6673 28.264C92.4107 28.264 92.9971 27.92 93.4266 27.232C93.7818 26.656 93.9635 25.984 93.9635 25.2Z" fill="white"/>
<path d="M102.348 22.632C102.158 22.6 101.952 22.584 101.729 22.584C101.043 22.584 100.506 22.832 100.135 23.336C99.8125 23.776 99.6473 24.344 99.6473 25.016V29.488H97.6897V23.648C97.6897 22.664 97.6731 21.768 97.6318 20.968H99.3334L99.4077 22.6H99.4656C99.6721 22.04 99.9942 21.584 100.44 21.248C100.878 20.944 101.349 20.792 101.853 20.792C102.034 20.792 102.2 20.808 102.34 20.824L102.348 22.632Z" fill="white"/>
<path d="M111.087 24.824C111.087 25.16 111.062 25.448 111.013 25.68H105.148C105.173 26.52 105.454 27.168 105.999 27.608C106.494 28 107.13 28.2 107.915 28.2C108.782 28.2 109.575 28.064 110.286 27.8L110.591 29.112C109.757 29.464 108.774 29.64 107.642 29.64C106.28 29.64 105.206 29.248 104.429 28.472C103.653 27.696 103.265 26.648 103.265 25.344C103.265 24.064 103.628 22.992 104.355 22.136C105.115 21.224 106.139 20.768 107.428 20.768C108.691 20.768 109.658 21.224 110.302 22.136C110.823 22.872 111.087 23.76 111.087 24.824ZM109.22 24.336C109.237 23.776 109.104 23.288 108.84 22.88C108.501 22.352 107.981 22.088 107.287 22.088C106.651 22.088 106.131 22.344 105.734 22.856C105.412 23.264 105.214 23.76 105.156 24.328L109.22 24.336Z" fill="white"/>
<path d="M43.8007 13.448H42.7764L42.2148 11.744H40.2654L39.7285 13.448H38.7373L40.6619 7.64001H41.8513L43.8007 13.448ZM42.0413 11.024L41.5374 9.50401C41.4879 9.35201 41.3888 8.98401 41.2318 8.40801H41.2153C41.1492 8.65601 41.0666 9.01601 40.9262 9.50401L40.4306 11.024H42.0413Z" fill="white"/>
<path d="M48.6245 9.25598L46.989 13.448H46.0556L44.4697 9.25598H45.5022L46.2374 11.472C46.3613 11.84 46.4686 12.192 46.5512 12.528H46.576C46.6504 12.224 46.7577 11.872 46.8899 11.472L47.6168 9.25598H48.6245Z" fill="white"/>
<path d="M52.1093 13.448L52.035 12.968H52.0102C51.7128 13.352 51.2916 13.544 50.7464 13.544C49.97 13.544 49.4248 13.016 49.4248 12.312C49.4248 11.28 50.3499 10.744 51.9524 10.744V10.664C51.9524 10.112 51.6467 9.84002 51.052 9.84002C50.6225 9.84002 50.2508 9.94402 49.9204 10.152L49.7222 9.54402C50.1186 9.30402 50.6225 9.18402 51.209 9.18402C52.3406 9.18402 52.9105 9.76002 52.9105 10.92V12.464C52.9105 12.888 52.927 13.216 52.9766 13.464L52.1093 13.448ZM51.9771 11.36C50.9116 11.36 50.3747 11.608 50.3747 12.208C50.3747 12.648 50.6473 12.864 51.0355 12.864C51.5228 12.864 51.9771 12.504 51.9771 12.008V11.36Z" fill="white"/>
<path d="M55.0502 8.56799C54.7282 8.56799 54.4805 8.32799 54.4805 8.00799C54.4805 7.68799 54.7364 7.45599 55.0667 7.45599C55.397 7.45599 55.6612 7.68799 55.653 8.00799C55.653 8.34399 55.4052 8.56799 55.0502 8.56799ZM54.5878 9.25599H55.5456V13.44H54.5878V9.25599Z" fill="white"/>
<path d="M57.2549 7.336H58.2127V13.44H57.2549V7.336Z" fill="white"/>
<path d="M62.2939 13.448L62.2195 12.968H62.1948C61.8974 13.352 61.4761 13.544 60.931 13.544C60.1545 13.544 59.6094 13.016 59.6094 12.312C59.6094 11.28 60.5345 10.744 62.1369 10.744V10.664C62.1369 10.112 61.8313 9.84003 61.2366 9.84003C60.8071 9.84003 60.4354 9.94403 60.105 10.152L59.9067 9.53603C60.3032 9.29603 60.8071 9.17603 61.3935 9.17603C62.5252 9.17603 63.0951 9.75203 63.0951 10.912V12.456C63.0951 12.88 63.1116 13.208 63.1529 13.456H62.2939V13.448ZM62.1617 11.36C61.0962 11.36 60.5593 11.608 60.5593 12.208C60.5593 12.648 60.8319 12.864 61.2201 12.864C61.7074 12.864 62.1617 12.504 62.1617 12.008V11.36Z" fill="white"/>
<path d="M66.9933 13.544C66.382 13.544 65.9277 13.296 65.6304 12.8H65.6138L65.556 13.448H64.7383C64.7631 13.112 64.7713 12.736 64.7713 12.32V7.336H65.7377V9.872H65.7543C66.0434 9.408 66.4977 9.176 67.1337 9.176C68.1744 9.176 68.9013 10.04 68.9013 11.296C68.9013 12.592 68.0918 13.544 66.9933 13.544ZM66.795 9.904C66.2416 9.904 65.7377 10.368 65.7377 11.016V11.752C65.7377 12.328 66.192 12.8 66.7785 12.8C67.4971 12.8 67.9266 12.232 67.9266 11.328C67.9266 10.48 67.4806 9.904 66.795 9.904Z" fill="white"/>
<path d="M70.3223 7.336H71.2801V13.44H70.3223V7.336Z" fill="white"/>
<path d="M76.51 11.576H73.6273C73.6438 12.368 74.1889 12.816 74.9902 12.816C75.4197 12.816 75.8079 12.744 76.1548 12.616L76.3035 13.264C75.8988 13.44 75.4197 13.52 74.858 13.52C73.5034 13.52 72.7021 12.696 72.7021 11.408C72.7021 10.128 73.5199 9.16003 74.7506 9.16003C75.8492 9.16003 76.5513 9.95203 76.5513 11.152C76.5513 11.32 76.543 11.464 76.51 11.576ZM75.6344 10.912C75.6344 10.264 75.2958 9.80803 74.6845 9.80803C74.1311 9.80803 73.7016 10.272 73.6355 10.912H75.6344Z" fill="white"/>
<path d="M82.3335 13.544C81.0697 13.544 80.252 12.632 80.252 11.392C80.252 10.096 81.0862 9.17603 82.4078 9.17603C83.6551 9.17603 84.4893 10.048 84.4893 11.32C84.4893 12.624 83.6303 13.544 82.3335 13.544ZM82.3748 9.85603C81.6809 9.85603 81.2349 10.488 81.2349 11.36C81.2349 12.224 81.6892 12.848 82.3665 12.848C83.0438 12.848 83.4981 12.176 83.4981 11.336C83.4899 10.488 83.0521 9.85603 82.3748 9.85603Z" fill="white"/>
<path d="M89.6503 13.448H88.6921V11.04C88.6921 10.296 88.3947 9.92797 87.8165 9.92797C87.2466 9.92797 86.8584 10.4 86.8584 10.952V13.44H85.9002V10.456C85.9002 10.088 85.892 9.68797 85.8672 9.25597H86.7097L86.751 9.90397H86.7758C87.0318 9.45597 87.5605 9.16797 88.1469 9.16797C89.0555 9.16797 89.6503 9.83997 89.6503 10.936V13.448Z" fill="white"/>
<path d="M95.9368 9.96H94.8799V11.992C94.8799 12.512 95.0698 12.768 95.4414 12.768C95.6065 12.768 95.7551 12.752 95.8707 12.728L95.8955 13.432C95.7056 13.504 95.4579 13.536 95.1524 13.536C94.3927 13.536 93.9469 13.128 93.9469 12.072V9.96H93.3193V9.264H93.9469V8.496L94.8882 8.216V9.256H95.945V9.96" fill="white"/>
<path d="M101.025 13.448H100.067V11.056C100.067 10.304 99.7699 9.928 99.1917 9.928C98.6961 9.928 98.2335 10.256 98.2335 10.92V13.44H97.2754V7.336H98.2335V9.848H98.2501C98.5557 9.392 98.9852 9.168 99.5469 9.168C100.464 9.168 101.025 9.856 101.025 10.952V13.448Z" fill="white"/>
<path d="M105.931 11.576H103.048C103.065 12.368 103.61 12.816 104.411 12.816C104.841 12.816 105.229 12.744 105.576 12.616L105.724 13.264C105.32 13.44 104.841 13.52 104.279 13.52C102.924 13.52 102.123 12.696 102.123 11.408C102.123 10.128 102.941 9.16003 104.172 9.16003C105.27 9.16003 105.972 9.95203 105.972 11.152C105.972 11.32 105.964 11.464 105.931 11.576ZM105.055 10.912C105.055 10.264 104.717 9.80803 104.105 9.80803C103.552 9.80803 103.114 10.272 103.056 10.912H105.055Z" fill="white"/>
</svg>
