
<svg width="63" height="16" viewBox="0 0 63 16" fill="none" xmlns="http://www.w3.org/2000/svg">
<path d="M1 7C0.447715 7 -4.82823e-08 7.44772 0 8C4.82823e-08 8.55228 0.447715 9 1 9L1 7ZM62.7071 8.7071C63.0976 8.31658 63.0976 7.68341 62.7071 7.29289L56.3431 0.928927C55.9526 0.538403 55.3195 0.538403 54.9289 0.928927C54.5384 1.31945 54.5384 1.95262 54.9289 2.34314L60.5858 7.99999L54.9289 13.6568C54.5384 14.0474 54.5384 14.6805 54.9289 15.0711C55.3195 15.4616 55.9526 15.4616 56.3431 15.0711L62.7071 8.7071ZM1 9L62 8.99999L62 6.99999L1 7L1 9Z" fill="#CFADFA"/>
</svg>
