<svg width="122" height="40" viewBox="0 0 122 40" fill="none" xmlns="http://www.w3.org/2000/svg">
<path d="M121.5 34.594V34.6435C121.473 37.3309 119.292 39.5 116.608 39.5H5.39302C2.69234 39.5002 0.5 37.3044 0.5 34.594V5.4055C0.5 2.69569 2.69228 0.5 5.39302 0.5H116.608C119.308 0.5 121.5 2.69557 121.5 5.4055V34.594Z" stroke="white"/>
<mask id="mask0_662_2325" style="mask-type:luminance" maskUnits="userSpaceOnUse" x="9" y="8" width="24" height="27">
<path d="M26.4386 17.6068L20.9375 14.4235C20.9375 14.4235 10.9157 8.62325 10.3266 8.28233C9.7374 7.9414 9.15039 8.14797 9.15039 8.86041V33.8799C9.15039 34.414 9.56993 34.6443 10.0818 34.3483C10.5934 34.0518 20.9375 28.0656 20.9375 28.0656L26.4383 24.8825C26.4383 24.8825 31.1058 22.1817 31.7261 21.8229C32.3466 21.4635 32.2869 20.971 31.7634 20.6885C31.24 20.4056 26.4386 17.6068 26.4386 17.6068Z" fill="white"/>
</mask>
<g mask="url(#mask0_662_2325)">
<path d="M9.15039 7.70087V34.7889L22.7782 21.245L9.15039 7.70087Z" fill="url(#paint0_linear_662_2325)"/>
</g>
<mask id="mask1_662_2325" style="mask-type:luminance" maskUnits="userSpaceOnUse" x="9" y="8" width="24" height="27">
<path d="M26.4386 17.6068L20.9375 14.4235C20.9375 14.4235 10.9157 8.62325 10.3266 8.28233C9.7374 7.9414 9.15039 8.14797 9.15039 8.86041V33.8799C9.15039 34.414 9.56993 34.6443 10.0818 34.3483C10.5934 34.0518 20.9375 28.0656 20.9375 28.0656L26.4383 24.8825C26.4383 24.8825 31.1058 22.1817 31.7261 21.8229C32.3466 21.4635 32.2869 20.971 31.7634 20.6885C31.24 20.4056 26.4386 17.6068 26.4386 17.6068Z" fill="white"/>
</mask>
<g mask="url(#mask1_662_2325)">
<path d="M26.4383 17.607L20.9373 14.4237L9.15039 7.60236V7.70086L22.7782 21.245L26.4383 17.607Z" fill="url(#paint1_linear_662_2325)"/>
</g>
<mask id="mask2_662_2325" style="mask-type:luminance" maskUnits="userSpaceOnUse" x="9" y="8" width="24" height="27">
<path d="M26.4386 17.6068L20.9375 14.4235C20.9375 14.4235 10.9157 8.62325 10.3266 8.28233C9.7374 7.9414 9.15039 8.14797 9.15039 8.86041V33.8799C9.15039 34.414 9.56993 34.6443 10.0818 34.3483C10.5934 34.0518 20.9375 28.0656 20.9375 28.0656L26.4383 24.8825C26.4383 24.8825 31.1058 22.1817 31.7261 21.8229C32.3466 21.4635 32.2869 20.971 31.7634 20.6885C31.24 20.4056 26.4386 17.6068 26.4386 17.6068Z" fill="white"/>
</mask>
<g mask="url(#mask2_662_2325)">
<path d="M9.15039 34.7888V34.8873L20.9373 28.0658L26.4381 24.8825L22.7782 21.2449L9.15039 34.7888Z" fill="url(#paint2_linear_662_2325)"/>
</g>
<mask id="mask3_662_2325" style="mask-type:luminance" maskUnits="userSpaceOnUse" x="9" y="8" width="24" height="27">
<path d="M26.4386 17.6068L20.9375 14.4235C20.9375 14.4235 10.9157 8.62325 10.3266 8.28233C9.7374 7.9414 9.15039 8.14797 9.15039 8.86041V33.8799C9.15039 34.414 9.56993 34.6443 10.0818 34.3483C10.5934 34.0518 20.9375 28.0656 20.9375 28.0656L26.4383 24.8825C26.4383 24.8825 31.1058 22.1817 31.7261 21.8229C32.3466 21.4635 32.2869 20.971 31.7634 20.6885C31.24 20.4056 26.4386 17.6068 26.4386 17.6068Z" fill="white"/>
</mask>
<g mask="url(#mask3_662_2325)">
<path d="M26.4385 17.6064L22.7783 21.2445L26.4382 24.882L32.725 21.2442L26.4385 17.6064Z" fill="url(#paint3_linear_662_2325)"/>
</g>
<path d="M94.9465 26.5399C94.4346 26.5399 93.9676 26.4453 93.5447 26.2561C93.1218 26.0668 92.7664 25.7756 92.4794 25.383H92.3936C92.4508 25.843 92.4794 26.2791 92.4794 26.691V29.9327H91.2896V18.5185H92.2576L92.4222 19.5967H92.4794C92.7856 19.1652 93.142 18.8541 93.5482 18.6624C93.9544 18.4706 94.4207 18.3748 94.9462 18.3748C95.9885 18.3748 96.7931 18.732 97.3593 19.4458C97.9258 20.1597 98.2092 21.1614 98.2092 22.4501C98.2092 23.7439 97.9211 24.7488 97.3455 25.4658C96.7695 26.182 95.97 26.5399 94.9465 26.5399ZM94.7742 19.3882C93.9711 19.3882 93.3903 19.6113 93.0318 20.0567C92.6733 20.5023 92.4892 21.2117 92.4794 22.1845V22.4501C92.4794 23.5572 92.6635 24.349 93.0318 24.826C93.4001 25.303 93.9907 25.5408 94.8029 25.5408C95.4822 25.5408 96.0141 25.2657 96.3991 24.7146C96.7836 24.1638 96.9761 23.4042 96.9761 22.4357C96.9761 21.4539 96.7836 20.6998 96.3991 20.1753C96.0143 19.6502 95.4724 19.3882 94.7742 19.3882ZM100.966 26.396H99.7753V15.212H100.966V26.396ZM107.81 26.396L107.573 25.2748H107.515C107.123 25.7687 106.733 26.1031 106.343 26.2774C105.953 26.4527 105.467 26.5399 104.884 26.5399C104.105 26.5399 103.494 26.3386 103.051 25.9363C102.609 25.5339 102.388 24.9616 102.388 24.2185C102.388 22.6279 103.658 21.794 106.196 21.7171L107.53 21.6738V21.1851C107.53 20.5669 107.397 20.1102 107.132 19.8159C106.867 19.5209 106.442 19.3736 105.859 19.3736C105.204 19.3736 104.463 19.5749 103.636 19.9773L103.27 19.0645C103.658 18.8536 104.082 18.6885 104.543 18.5687C105.005 18.4489 105.467 18.3889 105.931 18.3889C106.868 18.3889 107.562 18.5971 108.014 19.0141C108.466 19.431 108.692 20.0995 108.692 21.0197V26.3958H107.81L107.81 26.396ZM105.12 25.5554C105.861 25.5554 106.443 25.3517 106.866 24.9446C107.289 24.5374 107.501 23.967 107.501 23.2335V22.522L106.31 22.572C105.364 22.6062 104.682 22.753 104.263 23.0148C103.845 23.2758 103.636 23.682 103.636 24.2331C103.636 24.6641 103.766 24.9926 104.027 25.2173C104.287 25.4428 104.651 25.5554 105.12 25.5554ZM109.383 18.5185H110.659L112.38 23.0109C112.757 24.0365 112.992 24.7767 113.083 25.2322H113.14C113.203 24.9874 113.333 24.5697 113.531 23.9773C113.729 23.3853 114.379 21.5662 115.478 18.5185H116.755L113.377 27.4888C113.043 28.3753 112.652 29.0043 112.204 29.3763C111.757 29.7473 111.209 29.9327 110.559 29.9327C110.195 29.9327 109.837 29.892 109.483 29.8107V28.8549C109.746 28.9123 110.04 28.9412 110.365 28.9412C111.183 28.9412 111.765 28.4812 112.115 27.561L112.552 26.44L109.383 18.5185ZM72.8952 19.2505C73.273 19.5639 74.0621 20.2223 74.0621 21.4753C74.0621 22.6939 73.3715 23.2718 72.681 23.8147C72.4673 24.0287 72.2206 24.2601 72.2206 24.623C72.2206 24.9847 72.467 25.1827 72.6486 25.3312L73.2406 25.7916C73.9638 26.4015 74.6207 26.9621 74.6207 28.0994C74.6207 29.6481 73.1247 31.2129 70.2977 31.2129C67.9137 31.2129 66.7635 30.0763 66.7635 28.8563C66.7635 28.2634 67.058 27.4235 68.0293 26.8462C69.0478 26.22 70.4296 26.1385 71.169 26.0878C70.9381 25.7916 70.6758 25.4784 70.6758 24.9685C70.6758 24.6888 70.7583 24.5238 70.8401 24.3251C70.6586 24.3419 70.478 24.3584 70.3135 24.3584C68.5715 24.3584 67.5852 23.0566 67.5852 21.772C67.5852 21.0139 67.9308 20.1731 68.6369 19.5642C69.5743 18.7898 70.692 18.6576 71.5805 18.6576H74.9661L73.9139 19.2507H72.8952L72.8952 19.2505ZM71.7276 26.5667C71.5962 26.5495 71.5136 26.5495 71.35 26.5495C71.2022 26.5495 70.3132 26.5832 69.6236 26.8144C69.262 26.9452 68.2096 27.3406 68.2096 28.5111C68.2096 29.6804 69.3445 30.522 71.1036 30.522C72.6808 30.522 73.5201 29.7624 73.5201 28.7418C73.5201 27.8998 72.9775 27.4568 71.7276 26.5667ZM72.2047 23.4355C72.5822 23.0561 72.6147 22.5294 72.6147 22.2325C72.6147 21.0464 71.9082 19.201 70.5441 19.201C70.1161 19.201 69.6563 19.415 69.3932 19.7449C69.1141 20.0909 69.0311 20.5353 69.0311 20.9642C69.0311 22.068 69.6722 23.8972 71.0867 23.8972C71.4977 23.8972 71.9406 23.6995 72.2047 23.4355ZM62.5459 26.303C59.9367 26.303 58.5416 24.263 58.5416 22.4202C58.5416 20.2649 60.2974 18.4233 62.793 18.4233C65.2045 18.4233 66.7146 20.3144 66.7146 22.3054C66.7148 24.2458 65.2219 26.303 62.5459 26.303ZM64.5972 24.9706C64.9917 24.4437 65.0902 23.786 65.0902 23.1439C65.0902 21.6958 64.4009 18.9326 62.3656 18.9326C61.8242 18.9326 61.2827 19.1468 60.8889 19.493C60.2487 20.0679 60.1333 20.7921 60.1333 21.5002C60.1333 23.1276 60.9375 25.8084 62.924 25.8084C63.5639 25.8084 64.2206 25.4964 64.5972 24.9706ZM53.6502 26.303C51.0405 26.303 49.6451 24.263 49.6451 22.4202C49.6451 20.2649 51.4016 18.4233 53.8966 18.4233C56.3088 18.4233 57.8186 20.3144 57.8186 22.3054C57.8188 24.2458 56.3257 26.303 53.6502 26.303ZM55.702 24.9706C56.0958 24.4437 56.1945 23.786 56.1945 23.1439C56.1945 21.6958 55.5047 18.9326 53.4694 18.9326C52.9281 18.9326 52.3862 19.1468 51.9927 19.493C51.3525 20.0679 51.2377 20.7921 51.2377 21.5002C51.2377 23.1276 52.0415 25.8084 54.0282 25.8084C54.6684 25.8084 55.3246 25.4964 55.702 24.9706ZM48.3914 26.045L46.0315 26.5908C45.074 26.74 44.2163 26.8713 43.3092 26.8713C38.7544 26.8713 37.0225 23.5137 37.0225 20.8839C37.0225 17.6757 39.4807 14.6995 43.689 14.6995C44.5803 14.6995 45.4376 14.8314 46.213 15.0466C47.4505 15.394 48.028 15.8236 48.3912 16.072L47.0211 17.3785L46.4439 17.5103L46.8563 16.8485C46.2955 16.3032 45.2716 15.2945 43.3252 15.2945C40.7179 15.2945 38.7539 17.28 38.7539 20.1741C38.7539 23.2825 40.9984 26.21 44.5949 26.21C45.652 26.21 46.1954 25.9953 46.6908 25.7964V23.1343L44.1996 23.2665L45.5191 22.5546H49.0176L48.5889 22.9679C48.4726 23.0676 48.4566 23.1011 48.4237 23.2321C48.4065 23.3813 48.391 23.8613 48.391 24.0265V26.0451H48.3914V26.045Z" fill="white"/>
<path d="M78.1103 25.5691C77.5655 25.5193 77.4515 25.4206 77.4515 24.7748V15.4141C77.4548 15.3785 77.457 15.3419 77.4603 15.3074C77.5269 14.7289 77.6917 14.6297 78.2038 14.3315H75.8434L74.6055 14.9271H75.867V14.9345L75.8661 14.9285V25.1392C75.8661 25.4694 75.801 25.5196 75.421 26.0152H78.3419L78.9525 25.6523C78.6723 25.6181 78.3913 25.6021 78.1103 25.5691ZM84.8247 25.7211C84.6451 25.8198 84.4648 25.9353 84.2852 26.0168C83.7435 26.2631 83.1866 26.3291 82.694 26.3291C82.1709 26.3291 81.3509 26.2951 80.5144 25.6881C79.3518 24.8662 78.8438 23.4537 78.8438 22.2222C78.8438 19.6768 80.9084 18.4286 82.5962 18.4286C83.1863 18.4286 83.7934 18.5761 84.2849 18.8888C85.1036 19.4298 85.3165 20.1361 85.4306 20.514L81.5806 22.075L80.3186 22.1735C80.7276 24.2594 82.1368 25.4739 83.6941 25.4739C84.5297 25.4739 85.1363 25.1789 85.6932 24.9001L84.8247 25.7211ZM83.2848 20.8258C83.5956 20.7113 83.7595 20.6123 83.7595 20.3826C83.7595 19.726 83.0224 18.9701 82.1368 18.9701C81.4806 18.9701 80.2525 19.4796 80.2525 21.253C80.2525 21.5323 80.2854 21.8278 80.3023 22.1245L83.2848 20.8258ZM86.4064 18.5409V19.6247H86.275V18.5409H85.9172V18.4286H86.7639V18.5409H86.4064ZM87.8805 19.6247V18.5309H87.8745L87.5415 19.6247H87.4387L87.1029 18.5309H87.0986V19.6247H86.9793V18.4286H87.1837L87.4876 19.3954H87.4919L87.7912 18.4286H87.9985V19.6247H87.8805Z" fill="white"/>
<path d="M40.2999 11.4791H39.4799C39.4799 11.366 39.4021 11.0459 39.2466 10.5185H38.0628C37.9023 11.0373 37.8219 11.3574 37.8219 11.4791H37.0508C37.0508 11.4123 37.2502 10.8644 37.649 9.83542C38.0478 8.80644 38.2472 8.23957 38.2472 8.13535H39.2159C39.2159 8.23289 39.3964 8.79138 39.7578 9.81103C40.1191 10.8307 40.2999 11.3865 40.2999 11.4791ZM39.1161 10.0279C38.824 9.14447 38.678 8.66682 38.678 8.59484H38.637C38.637 8.66156 38.4857 9.13921 38.1835 10.0279H39.1161ZM43.604 11.4791H42.9712C42.9712 11.4088 42.7362 11.0382 42.2666 10.3671C41.7747 9.65994 41.4945 9.17653 41.4263 8.91619H41.3852C41.4279 9.29104 41.4494 9.63005 41.4494 9.93322C41.4494 10.3561 41.4614 10.8716 41.4852 11.4793H40.8548C40.8803 10.9486 40.8932 10.3657 40.8932 9.73048C40.8932 9.10556 40.8803 8.57384 40.8548 8.13561H41.6157C41.6157 8.22646 41.8265 8.58866 42.2485 9.22197C42.6976 9.89473 42.9557 10.3511 43.0223 10.5909H43.0607C43.0197 10.2091 42.9991 9.86674 42.9991 9.56361C42.9991 9.09982 42.9872 8.62356 42.9633 8.13561H43.604C43.5799 8.56021 43.5682 9.09191 43.5682 9.73048C43.568 10.3738 43.5799 10.9567 43.604 11.4791ZM47.3175 9.69152C47.3175 10.1778 47.162 10.6024 46.8512 10.9653C46.5402 11.3285 46.1046 11.5097 45.5444 11.5097C45.2915 11.5097 44.943 11.4994 44.4989 11.4788C44.5211 10.9617 44.5323 10.3786 44.5323 9.73001C44.5323 9.10698 44.5211 8.57527 44.4989 8.13511H44.9474C45.0208 8.13511 45.13 8.13248 45.2753 8.12746C45.4203 8.12244 45.5153 8.11981 45.5596 8.11981C46.1762 8.11981 46.6232 8.27402 46.9011 8.58218C47.1787 8.89035 47.3175 9.25996 47.3175 9.69152ZM46.6182 9.80193C46.6182 9.4732 46.5225 9.19635 46.3312 8.9709C46.1399 8.74593 45.8477 8.63335 45.4549 8.63335C45.3814 8.63335 45.2808 8.641 45.1525 8.65654C45.1694 8.99911 45.178 9.35677 45.178 9.72999C45.178 10.1393 45.1866 10.545 45.2035 10.9474C45.3131 10.9695 45.4246 10.9807 45.5365 10.9808C45.9038 10.9808 46.1757 10.8663 46.3525 10.6378C46.5292 10.4092 46.6182 10.1307 46.6182 9.80193ZM50.742 11.4791H49.9835C49.7853 10.873 49.6334 10.4989 49.5275 10.3568C49.4216 10.2146 49.2508 10.1436 49.0151 10.1436C48.9159 10.1436 48.8212 10.1445 48.7308 10.1462C48.7308 10.5864 48.7384 11.0306 48.754 11.4791H48.0417C48.0639 10.9619 48.0751 10.3788 48.0751 9.73023C48.0751 9.10721 48.0639 8.57549 48.0417 8.13535H48.4849C48.5362 8.13535 48.6433 8.13272 48.8064 8.1277C48.9696 8.12268 49.1203 8.12003 49.2587 8.12003C50.0427 8.12003 50.4348 8.38875 50.4348 8.92645C50.4348 9.35273 50.2111 9.64966 49.7636 9.81773V9.85622C49.9361 9.90403 50.0873 10.0391 50.2171 10.2605C50.3466 10.4821 50.5216 10.8883 50.742 11.4791ZM49.7813 9.11626C49.7813 8.77558 49.5625 8.60514 49.1253 8.60514C48.9648 8.60514 48.8229 8.61709 48.7 8.641C48.7189 8.90637 48.7282 9.25231 48.7282 9.67859C48.8222 9.68217 48.9016 9.68361 48.9665 9.68361C49.5096 9.68385 49.7813 9.49474 49.7813 9.11626ZM54.4148 9.74551C54.4148 10.271 54.2543 10.7068 53.933 11.0528C53.6117 11.3985 53.2146 11.5716 52.7416 11.5716C52.2905 11.5716 51.9129 11.4128 51.6091 11.0951C51.3049 10.7776 51.153 10.3738 51.153 9.88441C51.153 9.35892 51.3135 8.92309 51.6348 8.57714C51.9559 8.23144 52.353 8.05835 52.8262 8.05835C53.2773 8.05835 53.6546 8.21662 53.9588 8.53339C54.2629 8.85019 54.4148 9.25399 54.4148 9.74551ZM53.7078 9.81988C53.7078 9.46198 53.6165 9.17175 53.4338 8.94917C53.2508 8.72659 53.0254 8.61542 52.7573 8.61542C52.5078 8.61542 52.296 8.72754 52.1219 8.9518C51.9478 9.17605 51.8602 9.45937 51.8602 9.80195C51.8602 10.1579 51.9521 10.4477 52.1357 10.6712C52.3194 10.8948 52.5443 11.0064 52.811 11.0064C53.0602 11.0064 53.2723 10.8938 53.4464 10.6686C53.6205 10.4436 53.7078 10.1605 53.7078 9.81988ZM55.8636 11.4791H55.1385C55.1607 10.9483 55.1719 10.3654 55.1719 9.73023C55.1719 9.10528 55.1607 8.57358 55.1385 8.13535H55.8636C55.8414 8.56688 55.8302 9.09835 55.8302 9.73023C55.8302 10.3755 55.8414 10.9586 55.8636 11.4791ZM59.5774 9.69152C59.5774 10.1778 59.4219 10.6024 59.1111 10.9653C58.8001 11.3285 58.3645 11.5097 57.8042 11.5097C57.5514 11.5097 57.2029 11.4994 56.7588 11.4788C56.781 10.9617 56.7922 10.3786 56.7922 9.73001C56.7922 9.10698 56.781 8.57527 56.7588 8.13511H57.2072C57.2807 8.13511 57.3899 8.13248 57.5352 8.12746C57.6802 8.12244 57.7751 8.11981 57.8195 8.11981C58.4361 8.11981 58.8831 8.27402 59.161 8.58218C59.4386 8.89035 59.5774 9.25996 59.5774 9.69152ZM58.8781 9.80193C58.8781 9.4732 58.7824 9.19635 58.5911 8.9709C58.3998 8.74593 58.1076 8.63335 57.7148 8.63335C57.6413 8.63335 57.5406 8.641 57.4123 8.65654C57.4293 8.99911 57.4378 9.35677 57.4378 9.72999C57.4378 10.1393 57.4464 10.545 57.4633 10.9474C57.573 10.9695 57.6845 10.9807 57.7963 10.9808C58.1636 10.9808 58.4356 10.8663 58.6123 10.6378C58.7891 10.4092 58.8781 10.1307 58.8781 9.80193ZM64.5044 11.4791H63.6843C63.6843 11.366 63.6066 11.0459 63.4508 10.5185H62.267C62.1065 11.0373 62.0261 11.3574 62.0261 11.4791H61.2552C61.2552 11.4123 61.4546 10.8644 61.8534 9.83542C62.2522 8.80644 62.4516 8.23957 62.4516 8.13535H63.4203C63.4203 8.23289 63.6011 8.79138 63.9622 9.81103C64.3233 10.8307 64.5044 11.3865 64.5044 11.4791ZM63.3206 10.0279C63.0284 9.14447 62.8821 8.66682 62.8821 8.59484H62.8411C62.8411 8.66156 62.6901 9.13921 62.3879 10.0279H63.3206ZM67.4931 9.01085C67.4931 9.42014 67.3413 9.72234 67.0382 9.91742C66.735 10.1125 66.3631 10.2103 65.9223 10.2103C65.842 10.2103 65.785 10.2086 65.7506 10.2052C65.7506 10.5273 65.7599 10.9517 65.7788 11.4791H65.0586C65.0808 10.9844 65.092 10.4013 65.092 9.73023C65.092 9.11389 65.0808 8.58218 65.0586 8.13535H65.5044C65.5677 8.13535 65.6888 8.13272 65.8682 8.1277C66.0476 8.12268 66.2029 8.12003 66.3345 8.12003C66.6589 8.12003 66.9332 8.19367 67.1569 8.34094C67.3807 8.48823 67.4931 8.71129 67.4931 9.01085ZM66.8321 9.15214C66.8321 8.78586 66.5895 8.60251 66.1044 8.60251C65.983 8.60251 65.8549 8.6154 65.7201 8.641C65.739 8.96471 65.7483 9.33097 65.7483 9.74027C65.7909 9.74385 65.8406 9.74529 65.8969 9.74529C66.5204 9.74551 66.8321 9.54781 66.8321 9.15214ZM70.5662 9.01085C70.5662 9.42014 70.4145 9.72234 70.1116 9.91742C69.8084 10.1125 69.4363 10.2103 68.9955 10.2103C68.9151 10.2103 68.8581 10.2086 68.8238 10.2052C68.8238 10.5273 68.8331 10.9517 68.8519 11.4791H68.1318C68.154 10.9844 68.1652 10.4013 68.1652 9.73023C68.1652 9.11389 68.154 8.58218 68.1318 8.13535H68.5776C68.6409 8.13535 68.762 8.13272 68.9414 8.1277C69.1207 8.12268 69.276 8.12003 69.4077 8.12003C69.7321 8.12003 70.0064 8.19367 70.2301 8.34094C70.4538 8.48823 70.5662 8.71129 70.5662 9.01085ZM69.9052 9.15214C69.9052 8.78586 69.6627 8.60251 69.1775 8.60251C69.0561 8.60251 68.928 8.6154 68.7933 8.641C68.8121 8.96471 68.8214 9.33097 68.8214 9.74027C68.8641 9.74385 68.9137 9.74529 68.97 9.74529C69.5935 9.74551 69.9052 9.54781 69.9052 9.15214ZM75.5907 9.74551C75.5907 10.271 75.4302 10.7068 75.1089 11.0528C74.7876 11.3987 74.3904 11.5716 73.9174 11.5716C73.4664 11.5716 73.0888 11.4128 72.785 11.0951C72.4811 10.7776 72.3289 10.3738 72.3289 9.88441C72.3289 9.35892 72.4894 8.92309 72.8107 8.57714C73.132 8.2312 73.5291 8.05835 74.0021 8.05835C74.4532 8.05835 74.8307 8.21662 75.1346 8.53339C75.4385 8.85019 75.5907 9.25399 75.5907 9.74551ZM74.8835 9.81988C74.8835 9.46198 74.7921 9.17175 74.6094 8.94917C74.4267 8.72659 74.201 8.61542 73.933 8.61542C73.6835 8.61542 73.4716 8.72754 73.2975 8.9518C73.1234 9.17605 73.0361 9.45937 73.0361 9.80195C73.0361 10.1579 73.1279 10.4477 73.3116 10.6712C73.4952 10.8948 73.7202 11.0064 73.9866 11.0064C74.2361 11.0064 74.4479 10.8938 74.622 10.6686C74.7964 10.4436 74.8835 10.1605 74.8835 9.81988ZM79.0636 11.4791H78.4308C78.4308 11.4088 78.1961 11.0382 77.7262 10.3671C77.2344 9.65994 76.9541 9.17653 76.8859 8.91619H76.8448C76.8875 9.29104 76.909 9.63005 76.909 9.93322C76.909 10.3561 76.921 10.8716 76.9448 11.4793H76.3144C76.3399 10.9486 76.3528 10.3657 76.3528 9.73048C76.3528 9.10556 76.3399 8.57384 76.3144 8.13561H77.0753C77.0753 8.22646 77.2864 8.58866 77.7081 9.22197C78.1575 9.89473 78.4153 10.3511 78.4819 10.5909H78.5203C78.4792 10.2091 78.4587 9.86674 78.4587 9.56361C78.4587 9.09982 78.4468 8.62356 78.4229 8.13561H79.0636C79.0395 8.56021 79.0278 9.09191 79.0278 9.73048C79.0278 10.3738 79.0397 10.9567 79.0636 11.4791Z" fill="white"/>
<defs>
<linearGradient id="paint0_linear_662_2325" x1="15.9643" y1="7.70091" x2="15.9643" y2="34.7889" gradientUnits="userSpaceOnUse">
<stop stop-color="#257CB0"/>
<stop offset="0.286" stop-color="#4A93B5"/>
<stop offset="0.767" stop-color="#78BCBB"/>
<stop offset="1" stop-color="#89CFBD"/>
</linearGradient>
<linearGradient id="paint1_linear_662_2325" x1="9.15061" y1="14.4235" x2="26.4386" y2="14.4235" gradientUnits="userSpaceOnUse">
<stop stop-color="#52C1AD"/>
<stop offset="1" stop-color="#DEE89A"/>
</linearGradient>
<linearGradient id="paint2_linear_662_2325" x1="17.7942" y1="21.245" x2="17.7942" y2="34.8874" gradientUnits="userSpaceOnUse">
<stop stop-color="#EC413D"/>
<stop offset="0.167" stop-color="#DA4452"/>
<stop offset="0.575" stop-color="#B0487A"/>
<stop offset="0.862" stop-color="#954A92"/>
<stop offset="1" stop-color="#8A4A9D"/>
</linearGradient>
<linearGradient id="paint3_linear_662_2325" x1="27.7518" y1="17.6065" x2="27.7518" y2="24.8818" gradientUnits="userSpaceOnUse">
<stop stop-color="#F58879"/>
<stop offset="0.119" stop-color="#F69079"/>
<stop offset="0.713" stop-color="#FCB877"/>
<stop offset="1" stop-color="#FEC874"/>
</linearGradient>
</defs>
</svg>
