<svg width="24" height="24" viewBox="0 0 24 24" fill="none" xmlns="http://www.w3.org/2000/svg">
<path d="M9.21311 10.4426H7.16393V17H9.21311V10.4426ZM9.39754 8.18852C9.39862 8.03352 9.36916 7.87982 9.31084 7.7362C9.25252 7.59259 9.16648 7.46186 9.05764 7.3515C8.94879 7.24113 8.81928 7.15329 8.67648 7.09298C8.53369 7.03267 8.38041 7.00107 8.22541 7H8.18852C7.87331 7 7.571 7.12522 7.34811 7.34811C7.12522 7.571 7 7.87331 7 8.18852C7 8.50374 7.12522 8.80605 7.34811 9.02894C7.571 9.25183 7.87331 9.37705 8.18852 9.37705C8.34354 9.38086 8.49779 9.35409 8.64245 9.29828C8.78712 9.24246 8.91937 9.15868 9.03164 9.05173C9.14392 8.94478 9.23403 8.81676 9.29681 8.67497C9.35959 8.53319 9.39382 8.38043 9.39754 8.22541V8.18852ZM17 13.0164C17 11.0451 15.7459 10.2787 14.5 10.2787C14.0921 10.2583 13.6859 10.3451 13.322 10.5307C12.9582 10.7162 12.6493 10.9939 12.4262 11.3361H12.3689V10.4426H10.4426V17H12.4918V13.5123C12.4622 13.1551 12.5747 12.8006 12.8049 12.5259C13.0351 12.2512 13.3644 12.0784 13.7213 12.0451H13.7992C14.4508 12.0451 14.9344 12.4549 14.9344 13.4877V17H16.9836L17 13.0164Z" fill="white"/>
<rect x="2.85" y="2.85" width="18.3" height="18.3" rx="4.15" stroke="white" stroke-width="1.7"/>
</svg>
