<svg width="120" height="28" viewBox="0 0 120 28" fill="none" xmlns="http://www.w3.org/2000/svg">
    <g clip-path="url(#clip0_653_10803)">
        <path
            d="M42.4037 9.52002C37.7146 9.52002 35.0928 11.7091 35.0928 15.5273C35.0928 19.2946 37.7146 21.5346 42.4037 21.5346C47.1432 21.5346 49.7146 19.3455 49.7146 15.5273C49.765 11.7091 47.1432 9.52002 42.4037 9.52002ZM42.4037 19.2946C39.2776 19.2946 37.6642 17.92 37.6642 15.4764C37.6642 13.0327 39.3281 11.6582 42.4037 11.6582C45.5297 11.6582 47.1432 13.0327 47.1432 15.4764C47.1432 17.92 45.5297 19.2946 42.4037 19.2946Z"
            fill="black" />
        <path
            d="M60.3533 11.2509L56.8239 15.5782L53.2945 11.2509H50.3701L54.555 16.2909L50.4205 21.3309H53.2441L56.8239 17.0546L60.4037 21.3309H63.2273L59.0928 16.2909L63.2777 11.2509H60.3533Z"
            fill="black" />
        <path
            d="M70.8404 19.5491L66.9076 11.2509H64.2354L68.3698 19.8546H70.7396C70.0337 21.28 69.0253 21.6364 67.2101 21.6364C66.1513 21.6364 65.2438 21.4836 64.5379 21.28V23.3673C65.1933 23.5709 66.0505 23.6727 67.1093 23.6727C69.9328 23.6727 71.7984 23.0618 73.0085 20.4146L77.1933 11.2509H74.5211L70.8404 19.5491Z"
            fill="black" />
        <path
            d="M83.8487 17.7673C81.3781 17.7673 79.9663 17.1055 79.9663 15.4764C79.9663 13.8982 81.4285 13.1855 83.8487 13.1855C85.8655 13.1855 87.7814 13.8982 88.1344 15.5782C88.0335 12.4728 86.5714 11.0982 83.1428 11.0982C79.7142 11.0982 77.4453 12.5237 77.4453 15.5782C77.4453 18.48 79.6638 19.7528 83.1932 19.7528C86.4201 19.7528 87.9831 18.6837 88.084 15.7309C87.6806 17.2073 85.9663 17.7673 83.8487 17.7673Z"
            fill="black" />
        <path
            d="M88.1348 15.5782V15.7818V18.6836C88.1348 20.72 87.0256 21.5855 83.0928 21.5855C80.9752 21.5855 79.16 21.2291 78.0508 20.8727V23.1127C79.2104 23.4182 80.9247 23.6727 83.0928 23.6727C88.5382 23.6727 90.7567 22.2473 90.7567 18.6836V11.2509H88.1852V15.5782H88.1348Z"
            fill="black" />
        <path
            d="M99.1264 11.0473C95.2944 11.0473 92.7734 12.9309 92.7734 16.3418C92.7734 19.9055 95.244 21.4837 99.8827 21.4837C101.95 21.4837 103.664 21.1782 104.925 20.72V18.7346C103.463 19.2437 101.748 19.4473 99.9835 19.4473C97.0087 19.4473 95.5465 18.7855 95.2944 17.0037H105.076C105.328 13.3382 103.614 11.0473 99.1264 11.0473ZM95.3953 15.2218C95.7986 13.6946 97.0592 13.0328 99.076 13.0328C101.446 13.0328 102.505 13.7964 102.757 15.2218H95.3953Z"
            fill="black" />
        <path
            d="M114.806 11.0473C111.932 11.0473 110.117 12.4218 109.865 15.1709C110.622 13.9491 111.932 13.2364 113.748 13.2364C115.815 13.2364 116.974 14.1018 116.974 16.0364V21.28H119.495V15.68C119.546 12.7273 117.983 11.0473 114.806 11.0473Z"
            fill="black" />
        <path d="M107.395 11.2509V21.3309H109.865V15.1709V11.2509H107.395Z" fill="black" />
        <path
            d="M17.9498 3.76728C16.5884 3.36001 15.0254 3.15637 13.412 3.15637C5.34475 3.15637 0.302734 7.94183 0.302734 15.5782C0.302734 23.2146 5.34475 28 13.412 28C21.4792 28 26.5212 23.2146 26.5212 15.5782C26.5212 13.7455 26.2187 12.1164 25.7145 10.64C20.8237 11.3018 17.6473 8.19637 17.9498 3.76728ZM13.412 19.9055C10.6389 19.9055 8.92458 18.2764 8.92458 15.6291C8.92458 12.9818 10.6389 11.3527 13.412 11.3527C16.1851 11.3527 17.8994 12.9818 17.8994 15.6291C17.8994 18.2764 16.1347 19.9055 13.412 19.9055Z"
            fill="black" />
        <path
            d="M24.504 8.65453C26.9823 8.65453 28.9914 6.73994 28.9914 4.37817C28.9914 2.0164 26.9823 0.101807 24.504 0.101807C22.0257 0.101807 20.0166 2.0164 20.0166 4.37817C20.0166 6.73994 22.0257 8.65453 24.504 8.65453Z"
            fill="black" />
    </g>
    <defs>
        <clipPath id="clip0_653_10803">
            <rect width="120" height="28" fill="white" />
        </clipPath>
    </defs>
</svg>